<svg id="svg" version="1.1" xmlns="http://www.w3.org/2000/svg" xmlns:xlink="http://www.w3.org/1999/xlink" width="400" height="400" viewBox="0, 0, 400,400"><g id="svgg"><path id="path0" d="M157.227 121.355 C 114.998 123.030,82.482 131.700,75.062 143.263 C 69.861 151.368,72.833 186.319,80.651 208.993 C 81.428 211.244,83.127 216.514,84.428 220.703 C 88.628 234.231,97.333 253.953,104.075 265.218 C 105.431 267.483,109.284 274.129,112.638 279.987 C 119.302 291.628,121.126 294.477,125.486 300.055 C 127.082 302.096,130.407 306.478,132.877 309.793 C 141.135 320.879,152.922 333.432,156.975 335.457 C 166.896 340.415,177.019 335.798,178.893 325.462 C 180.044 319.116,178.261 315.884,167.491 304.802 C 163.775 300.979,159.764 296.533,158.577 294.922 C 157.389 293.311,154.933 289.996,153.117 287.556 C 141.795 272.337,132.418 257.945,129.249 250.920 C 128.584 249.447,126.753 245.518,125.178 242.188 C 114.598 219.806,115.796 216.455,135.352 213.723 C 153.525 211.184,153.093 211.215,169.922 211.198 L 185.742 211.181 197.070 212.645 C 203.301 213.451,210.684 214.638,213.477 215.283 C 216.270 215.928,221.719 217.134,225.586 217.963 C 229.453 218.792,235.430 220.348,238.867 221.419 C 242.305 222.491,246.436 223.755,248.047 224.227 C 256.087 226.585,267.760 231.702,274.534 235.837 C 287.801 243.938,298.296 242.854,301.943 233.008 C 306.081 221.835,297.608 214.419,264.648 200.363 C 246.925 192.805,241.689 191.209,220.703 186.964 C 201.224 183.025,166.212 181.151,148.633 183.108 C 139.727 184.099,129.718 185.539,125.062 186.499 C 108.631 189.887,104.840 187.972,103.068 175.391 C 101.271 162.630,106.371 160.545,150.000 156.212 L 162.695 154.951 177.148 155.414 C 185.098 155.668,193.929 155.872,196.774 155.868 C 210.822 155.845,246.516 162.628,268.532 169.504 C 274.985 171.519,290.924 178.459,298.934 182.739 C 304.248 185.579,305.798 186.178,309.259 186.731 C 321.411 188.673,331.461 175.664,326.273 164.709 C 323.845 159.583,318.552 155.318,307.031 149.207 C 292.509 141.503,290.944 140.801,273.047 133.956 C 261.063 129.372,246.057 125.913,229.102 123.826 C 225.664 123.402,220.918 122.799,218.555 122.485 C 211.130 121.498,171.871 120.774,157.227 121.355 M172.754 393.238 C 173.130 393.336,173.745 393.336,174.121 393.238 C 174.497 393.140,174.189 393.059,173.438 393.059 C 172.686 393.059,172.378 393.140,172.754 393.238 M192.285 394.816 C 193.091 394.900,194.409 394.900,195.215 394.816 C 196.021 394.732,195.361 394.663,193.750 394.663 C 192.139 394.663,191.479 394.732,192.285 394.816 M207.129 394.816 C 207.935 394.900,209.253 394.900,210.059 394.816 C 210.864 394.732,210.205 394.663,208.594 394.663 C 206.982 394.663,206.323 394.732,207.129 394.816 " stroke="none" fill="#04acf4" fill-rule="evenodd"></path><path id="path1" d="M184.638 15.109 C 180.623 15.211,178.586 15.420,177.997 15.791 C 177.529 16.087,175.404 16.452,173.261 16.604 C 171.124 16.757,169.014 17.105,168.574 17.379 C 168.134 17.652,166.408 17.983,164.739 18.113 C 163.070 18.244,161.312 18.606,160.833 18.918 C 160.353 19.231,158.586 19.609,156.906 19.760 C 155.220 19.912,153.213 20.360,152.428 20.760 C 151.646 21.158,150.642 21.484,150.195 21.484 C 149.749 21.484,148.694 21.836,147.852 22.266 C 147.009 22.695,145.954 23.047,145.508 23.047 C 145.062 23.047,144.007 23.398,143.164 23.828 C 142.321 24.258,141.267 24.609,140.820 24.609 C 140.374 24.609,139.319 24.961,138.477 25.391 C 137.634 25.820,136.583 26.172,136.140 26.172 C 135.698 26.172,133.937 26.875,132.227 27.734 C 130.516 28.594,128.657 29.297,128.095 29.297 C 127.534 29.297,126.756 29.648,126.367 30.078 C 125.978 30.508,125.389 30.859,125.058 30.859 C 124.225 30.859,114.248 35.829,113.661 36.536 C 113.400 36.851,112.795 37.109,112.317 37.109 C 111.840 37.109,111.131 37.461,110.742 37.891 C 110.353 38.320,109.654 38.672,109.187 38.672 C 108.721 38.672,107.913 39.133,107.392 39.696 C 106.871 40.259,105.740 41.026,104.877 41.400 C 104.015 41.774,103.070 42.368,102.779 42.720 C 102.487 43.072,101.866 43.359,101.399 43.359 C 100.922 43.359,99.879 44.046,99.023 44.922 C 98.184 45.781,97.132 46.484,96.686 46.484 C 96.212 46.484,94.909 47.459,93.555 48.828 C 92.279 50.117,90.894 51.172,90.477 51.172 C 90.060 51.172,88.705 52.139,87.467 53.320 C 86.228 54.502,84.905 55.469,84.528 55.469 C 84.150 55.469,80.922 58.369,77.355 61.914 C 73.443 65.802,70.569 68.359,70.112 68.359 C 69.086 68.359,63.672 73.778,63.672 74.804 C 63.672 75.285,62.425 76.844,60.547 78.711 C 58.778 80.469,57.422 82.147,57.422 82.577 C 57.422 82.994,56.279 84.519,54.883 85.966 C 53.486 87.412,52.344 88.897,52.344 89.265 C 52.344 89.633,51.025 91.288,49.414 92.944 C 47.695 94.711,46.484 96.286,46.484 96.758 C 46.484 97.199,46.197 97.799,45.845 98.091 C 45.493 98.383,44.899 99.327,44.525 100.190 C 44.151 101.052,43.384 102.184,42.821 102.705 C 42.258 103.226,41.797 104.039,41.797 104.512 C 41.797 104.986,41.524 105.599,41.192 105.875 C 40.859 106.152,39.907 107.799,39.077 109.537 C 38.247 111.274,37.113 113.121,36.557 113.642 C 36.002 114.163,35.547 114.977,35.547 115.450 C 35.547 115.923,35.289 116.525,34.974 116.786 C 34.182 117.443,29.297 127.399,29.297 128.356 C 29.297 128.783,28.945 129.821,28.516 130.664 C 28.086 131.507,27.734 132.562,27.734 133.008 C 27.734 133.454,27.403 134.470,26.997 135.265 C 26.592 136.060,26.144 137.331,26.001 138.090 C 25.859 138.849,25.136 140.634,24.395 142.056 C 23.653 143.479,23.047 145.020,23.047 145.481 C 23.047 145.942,22.695 147.009,22.266 147.852 C 21.836 148.694,21.484 149.749,21.484 150.195 C 21.484 150.642,21.143 151.675,20.727 152.493 C 20.310 153.310,19.852 154.973,19.709 156.189 C 19.566 157.404,19.220 158.762,18.941 159.207 C 18.662 159.652,18.310 161.059,18.160 162.332 C 18.009 163.606,17.660 165.009,17.384 165.449 C 17.108 165.889,16.757 167.999,16.604 170.136 C 16.452 172.274,16.101 174.382,15.825 174.821 C 15.521 175.304,15.213 177.769,15.045 181.071 C 14.860 184.684,14.579 186.819,14.212 187.400 C 13.365 188.738,13.329 213.551,14.172 214.889 C 14.620 215.601,14.806 217.614,14.961 223.438 C 15.110 229.020,15.318 231.368,15.740 232.227 C 16.110 232.979,16.403 235.256,16.559 238.592 C 16.717 241.980,16.991 244.084,17.346 244.646 C 17.648 245.125,18.010 247.194,18.160 249.303 C 18.339 251.818,18.682 253.593,19.176 254.562 C 19.586 255.366,19.927 256.471,19.934 257.016 C 19.941 257.562,20.205 258.349,20.520 258.766 C 20.836 259.183,21.094 260.009,21.094 260.601 C 21.094 261.193,21.533 262.504,22.070 263.514 C 22.607 264.524,23.047 265.727,23.047 266.187 C 23.047 266.646,23.398 267.712,23.828 268.555 C 24.258 269.397,24.609 270.449,24.609 270.891 C 24.609 271.333,25.312 273.094,26.172 274.805 C 27.031 276.515,27.734 278.272,27.734 278.708 C 27.734 279.145,28.789 281.607,30.078 284.180 C 31.367 286.752,32.422 289.316,32.422 289.876 C 32.422 290.436,32.773 291.213,33.203 291.602 C 33.633 291.990,33.984 292.694,33.984 293.164 C 33.984 293.635,34.336 294.338,34.766 294.727 C 35.195 295.115,35.547 295.813,35.547 296.277 C 35.547 296.740,36.070 297.621,36.710 298.234 C 37.349 298.846,38.055 299.901,38.278 300.577 C 38.501 301.253,39.384 302.490,40.240 303.326 C 41.096 304.162,41.797 305.214,41.797 305.664 C 41.797 306.114,42.500 307.169,43.359 308.008 C 44.219 308.847,44.922 309.902,44.922 310.352 C 44.922 310.801,45.625 311.856,46.484 312.695 C 47.344 313.534,48.047 314.587,48.047 315.035 C 48.047 315.495,48.895 316.685,49.996 317.769 C 51.068 318.825,52.125 320.236,52.346 320.904 C 52.566 321.572,53.447 322.803,54.303 323.639 C 55.159 324.475,55.859 325.509,55.859 325.938 C 55.859 326.409,57.641 328.522,60.352 331.266 C 62.822 333.768,64.844 336.137,64.844 336.532 C 64.844 337.530,76.897 349.609,77.892 349.609 C 78.353 349.609,80.360 351.277,82.830 353.711 C 85.120 355.967,87.303 357.812,87.682 357.812 C 88.061 357.812,89.726 359.131,91.381 360.742 C 93.068 362.383,94.731 363.672,95.164 363.672 C 95.588 363.672,96.622 364.375,97.461 365.234 C 98.316 366.111,99.360 366.797,99.836 366.797 C 100.303 366.797,100.924 367.085,101.216 367.436 C 101.508 367.788,102.452 368.382,103.315 368.756 C 104.177 369.131,105.309 369.898,105.830 370.461 C 106.351 371.024,107.164 371.484,107.637 371.484 C 108.111 371.484,108.710 371.740,108.969 372.051 C 109.555 372.758,122.661 379.297,123.491 379.297 C 123.825 379.297,124.416 379.648,124.805 380.078 C 125.194 380.508,125.971 380.859,126.533 380.859 C 127.094 380.859,128.953 381.563,130.664 382.422 C 132.375 383.281,134.136 383.984,134.578 383.984 C 135.020 383.984,136.071 384.336,136.914 384.766 C 137.757 385.195,138.812 385.547,139.258 385.547 C 139.704 385.547,140.759 385.898,141.602 386.328 C 142.444 386.758,143.499 387.109,143.945 387.109 C 144.392 387.109,145.446 387.461,146.289 387.891 C 147.132 388.320,148.187 388.672,148.633 388.672 C 149.079 388.672,150.134 389.023,150.977 389.453 C 151.819 389.883,153.226 390.234,154.102 390.234 C 154.978 390.234,156.352 390.570,157.157 390.980 C 158.126 391.474,159.901 391.817,162.415 391.996 C 164.503 392.145,166.571 392.493,167.011 392.771 C 167.452 393.048,169.561 393.399,171.699 393.552 C 174.260 393.734,175.919 394.049,176.563 394.473 C 178.045 395.451,221.161 395.456,222.656 394.479 C 223.347 394.027,224.990 393.764,228.265 393.581 C 231.161 393.419,233.210 393.118,233.733 392.778 C 234.194 392.478,235.977 392.108,237.695 391.955 C 239.414 391.803,241.172 391.460,241.602 391.193 C 242.031 390.926,243.377 390.591,244.593 390.447 C 245.808 390.304,247.471 389.846,248.288 389.430 C 249.106 389.013,250.221 388.666,250.766 388.659 C 251.312 388.653,252.099 388.389,252.516 388.074 C 252.933 387.758,253.759 387.500,254.351 387.500 C 254.943 387.500,256.254 387.061,257.264 386.523 C 258.274 385.986,259.477 385.547,259.937 385.547 C 260.396 385.547,261.462 385.195,262.305 384.766 C 263.147 384.336,264.202 383.984,264.648 383.984 C 265.095 383.984,266.149 383.633,266.992 383.203 C 267.835 382.773,268.987 382.422,269.553 382.422 C 270.119 382.422,270.900 382.070,271.289 381.641 C 271.678 381.211,272.381 380.859,272.852 380.859 C 273.322 380.859,274.025 380.508,274.414 380.078 C 274.803 379.648,275.506 379.297,275.977 379.297 C 276.447 379.297,277.150 378.945,277.539 378.516 C 277.928 378.086,278.631 377.734,279.102 377.734 C 279.572 377.734,280.275 377.383,280.664 376.953 C 281.053 376.523,281.756 376.172,282.227 376.172 C 282.697 376.172,283.400 375.820,283.789 375.391 C 284.178 374.961,284.881 374.609,285.352 374.609 C 285.822 374.609,286.525 374.258,286.914 373.828 C 287.303 373.398,288.006 373.047,288.477 373.047 C 288.947 373.047,289.650 372.695,290.039 372.266 C 290.428 371.836,291.128 371.484,291.594 371.484 C 292.060 371.484,292.868 371.024,293.389 370.461 C 293.910 369.898,295.042 369.131,295.904 368.756 C 296.766 368.382,297.711 367.788,298.003 367.436 C 298.294 367.085,298.886 366.797,299.317 366.797 C 299.748 366.797,300.782 366.182,301.614 365.430 C 302.446 364.678,303.395 364.063,303.722 364.063 C 304.049 364.062,305.450 363.008,306.836 361.719 C 308.222 360.430,309.650 359.375,310.009 359.375 C 310.369 359.375,312.537 357.529,314.826 355.273 C 317.283 352.852,319.304 351.172,319.760 351.172 C 320.186 351.172,321.573 350.120,322.852 348.828 C 324.178 347.488,325.512 346.484,325.967 346.484 C 327.063 346.484,344.922 328.613,344.922 327.518 C 344.922 327.080,345.625 326.034,346.484 325.195 C 347.344 324.356,348.047 323.301,348.047 322.852 C 348.047 322.402,348.750 321.347,349.609 320.508 C 350.469 319.669,351.172 318.648,351.172 318.239 C 351.172 317.830,351.611 316.973,352.148 316.335 C 352.686 315.697,353.125 314.935,353.125 314.642 C 353.125 314.350,353.828 313.298,354.688 312.305 C 355.547 311.312,356.250 310.247,356.250 309.938 C 356.250 309.630,356.865 308.696,357.617 307.864 C 358.369 307.032,358.984 305.998,358.984 305.567 C 358.984 305.136,359.272 304.544,359.624 304.253 C 359.975 303.961,360.569 303.016,360.944 302.154 C 361.318 301.292,362.085 300.160,362.648 299.639 C 363.211 299.118,363.672 298.310,363.672 297.844 C 363.672 297.378,364.023 296.678,364.453 296.289 C 364.883 295.900,365.234 295.197,365.234 294.727 C 365.234 294.256,365.586 293.553,366.016 293.164 C 366.445 292.775,366.797 292.066,366.797 291.589 C 366.797 291.111,367.069 290.495,367.401 290.219 C 368.174 289.578,369.922 285.900,369.922 284.916 C 369.922 284.503,370.625 282.765,371.484 281.055 C 372.344 279.344,373.047 277.572,373.047 277.116 C 373.047 276.661,373.486 275.462,374.023 274.452 C 374.561 273.441,375.000 272.130,375.000 271.538 C 375.000 270.946,375.258 270.121,375.574 269.704 C 375.889 269.287,376.153 268.499,376.159 267.954 C 376.166 267.408,376.523 266.272,376.953 265.430 C 377.383 264.587,377.734 263.532,377.734 263.086 C 377.734 262.640,378.075 261.606,378.492 260.788 C 378.909 259.971,379.367 258.308,379.510 257.093 C 379.653 255.877,379.999 254.519,380.278 254.074 C 380.557 253.629,380.909 252.223,381.059 250.949 C 381.210 249.675,381.569 248.256,381.859 247.796 C 382.174 247.294,382.489 245.106,382.644 242.327 C 382.790 239.702,383.119 237.348,383.401 236.895 C 383.675 236.454,384.024 234.345,384.177 232.207 C 384.329 230.069,384.694 227.939,384.988 227.474 C 385.359 226.886,385.600 224.501,385.775 219.661 C 385.953 214.787,386.191 212.436,386.569 211.830 C 387.330 210.611,387.331 201.108,386.569 199.889 C 386.170 199.249,385.964 196.602,385.779 189.718 C 385.596 182.910,385.386 180.185,384.997 179.562 C 384.675 179.047,384.363 176.881,384.206 174.079 C 384.051 171.301,383.737 169.113,383.421 168.610 C 383.132 168.150,382.772 166.731,382.622 165.457 C 382.471 164.184,382.120 162.777,381.840 162.332 C 381.561 161.887,381.216 160.529,381.072 159.314 C 380.929 158.098,380.471 156.435,380.055 155.618 C 379.638 154.800,379.297 153.767,379.297 153.320 C 379.297 152.874,378.945 151.819,378.516 150.977 C 378.086 150.134,377.734 149.079,377.734 148.633 C 377.734 148.187,377.383 147.132,376.953 146.289 C 376.523 145.446,376.172 144.392,376.172 143.945 C 376.172 143.499,375.820 142.444,375.391 141.602 C 374.961 140.759,374.609 139.704,374.609 139.258 C 374.609 138.812,374.258 137.757,373.828 136.914 C 373.398 136.071,373.047 135.021,373.047 134.580 C 373.047 134.140,371.992 131.674,370.703 129.102 C 369.414 126.529,368.359 123.965,368.359 123.405 C 368.359 122.845,368.008 122.069,367.578 121.680 C 367.148 121.291,366.797 120.588,366.797 120.117 C 366.797 119.647,366.445 118.944,366.016 118.555 C 365.586 118.166,365.234 117.579,365.234 117.251 C 365.234 116.413,361.838 109.570,361.131 108.983 C 360.810 108.716,360.547 108.116,360.547 107.649 C 360.547 107.172,359.861 106.129,358.984 105.273 C 358.125 104.434,357.422 103.404,357.422 102.983 C 357.422 102.563,356.455 101.205,355.273 99.967 C 354.092 98.728,353.125 97.448,353.125 97.123 C 353.125 96.798,352.422 95.719,351.563 94.727 C 350.703 93.734,350.000 92.661,350.000 92.342 C 350.000 92.024,349.209 90.918,348.242 89.884 C 347.275 88.851,346.484 87.668,346.484 87.257 C 346.484 86.829,344.811 84.842,342.578 82.617 C 340.192 80.240,338.672 78.417,338.672 77.933 C 338.672 76.880,325.480 63.672,324.428 63.672 C 323.981 63.672,321.646 61.669,318.735 58.789 C 316.021 56.104,313.483 53.906,313.095 53.906 C 312.708 53.906,310.691 52.236,308.613 50.195 C 306.299 47.922,304.523 46.484,304.029 46.484 C 303.584 46.484,302.995 46.212,302.718 45.879 C 302.442 45.546,300.794 44.595,299.057 43.765 C 297.320 42.935,295.472 41.801,294.951 41.245 C 294.431 40.689,293.617 40.234,293.144 40.234 C 292.670 40.234,292.075 39.983,291.820 39.676 C 291.159 38.880,268.693 27.734,267.748 27.734 C 267.316 27.734,266.272 27.383,265.430 26.953 C 264.587 26.523,263.532 26.172,263.086 26.172 C 262.640 26.172,261.585 25.820,260.742 25.391 C 259.899 24.961,258.845 24.609,258.398 24.609 C 257.952 24.609,256.897 24.258,256.055 23.828 C 255.212 23.398,254.157 23.047,253.711 23.047 C 253.265 23.047,252.231 22.706,251.413 22.289 C 250.596 21.872,248.933 21.414,247.718 21.271 C 246.502 21.128,245.144 20.783,244.699 20.503 C 244.254 20.224,242.848 19.872,241.574 19.722 C 240.300 19.572,238.894 19.220,238.449 18.941 C 238.004 18.662,236.598 18.310,235.324 18.160 C 234.050 18.009,232.648 17.660,232.207 17.384 C 231.767 17.108,229.658 16.757,227.520 16.604 C 225.117 16.433,223.269 16.097,222.680 15.723 C 221.697 15.100,199.281 14.738,184.638 15.109 M199.805 121.505 C 207.754 121.730,216.191 122.171,218.555 122.485 C 220.918 122.799,225.664 123.402,229.102 123.826 C 246.057 125.913,261.063 129.372,273.047 133.956 C 290.944 140.801,292.509 141.503,307.031 149.207 C 318.552 155.318,323.845 159.583,326.273 164.709 C 331.461 175.664,321.411 188.673,309.259 186.731 C 305.798 186.178,304.248 185.579,298.934 182.739 C 290.924 178.459,274.985 171.519,268.532 169.504 C 246.516 162.628,210.822 155.845,196.774 155.868 C 193.929 155.872,185.098 155.668,177.148 155.414 L 162.695 154.951 150.000 156.212 C 106.371 160.545,101.271 162.630,103.068 175.391 C 104.840 187.972,108.631 189.887,125.062 186.499 C 129.718 185.539,139.727 184.099,148.633 183.108 C 166.212 181.151,201.224 183.025,220.703 186.964 C 241.689 191.209,246.925 192.805,264.648 200.363 C 297.608 214.419,306.081 221.835,301.943 233.008 C 298.296 242.854,287.801 243.938,274.534 235.837 C 267.760 231.702,256.087 226.585,248.047 224.227 C 246.436 223.755,242.305 222.491,238.867 221.419 C 235.430 220.348,229.453 218.792,225.586 217.963 C 221.719 217.134,216.270 215.928,213.477 215.283 C 210.684 214.638,203.301 213.451,197.070 212.645 L 185.742 211.181 169.922 211.198 C 153.093 211.215,153.525 211.184,135.352 213.723 C 115.796 216.455,114.598 219.806,125.178 242.188 C 126.753 245.518,128.584 249.447,129.249 250.920 C 132.418 257.945,141.795 272.337,153.117 287.556 C 154.933 289.996,157.389 293.311,158.577 294.922 C 159.764 296.533,163.775 300.979,167.491 304.802 C 178.261 315.884,180.044 319.116,178.893 325.462 C 177.019 335.798,166.896 340.415,156.975 335.457 C 152.922 333.432,141.135 320.879,132.877 309.793 C 130.407 306.478,127.082 302.096,125.486 300.055 C 121.126 294.477,119.302 291.628,112.638 279.987 C 109.284 274.129,105.431 267.483,104.075 265.218 C 97.333 253.953,88.628 234.231,84.428 220.703 C 83.127 216.514,81.428 211.244,80.651 208.993 C 72.833 186.319,69.861 151.368,75.062 143.263 C 81.836 132.706,111.232 124.044,147.656 121.871 C 161.470 121.047,179.198 120.923,199.805 121.505 M174.121 393.238 C 173.745 393.336,173.130 393.336,172.754 393.238 C 172.378 393.140,172.686 393.059,173.438 393.059 C 174.189 393.059,174.497 393.140,174.121 393.238 M195.215 394.816 C 194.409 394.900,193.091 394.900,192.285 394.816 C 191.479 394.732,192.139 394.663,193.750 394.663 C 195.361 394.663,196.021 394.732,195.215 394.816 M210.059 394.816 C 209.253 394.900,207.935 394.900,207.129 394.816 C 206.323 394.732,206.982 394.663,208.594 394.663 C 210.205 394.663,210.864 394.732,210.059 394.816 " stroke="none" fill="#343c44" fill-rule="evenodd"></path></g></svg>